<?xml version="1.0" encoding="utf-8"?>
<!-- Generator: Adobe Illustrator 17.0.0, SVG Export Plug-In . SVG Version: 6.00 Build 0)  -->
<!DOCTYPE svg PUBLIC "-//W3C//DTD SVG 1.1//EN" "http://www.w3.org/Graphics/SVG/1.1/DTD/svg11.dtd">
<svg width="100%" height="100%" viewBox="0 0 72 78" preserveAspectRatio="none"
version="1.1" id="图层_1" xmlns="http://www.w3.org/2000/svg" xmlns:xlink="http://www.w3.org/1999/xlink" enable-background="new 0 0 72 78" xml:space="preserve">
<g>
	<path fill="#757575" d="M68,66c0,4.418-3.582,8-8,8H12c-4.418,0-8-3.582-8-8V14c0-4.418,3.582-8,8-8h48c4.418,0,8,3.582,8,8V66z"/>
	<path fill="#ACB3BD" d="M68,64c0,4.418-3.582,8-8,8H12c-4.418,0-8-3.582-8-8V12c0-4.418,3.582-8,8-8h48c4.418,0,8,3.582,8,8V64z"/>
</g>
<path fill="#FFFFFF" d="M50.108,23.75h-22l-12.445,13l12.445,13h22c1.657,0,3-1.343,3-3v-20
	C53.108,25.093,51.765,23.75,50.108,23.75z"/>
<g>
	<path fill="#ACB3BD" d="M44.933,42.599c-0.383,0.383-1.003,0.383-1.385,0L33.234,32.286c-0.383-0.383-0.383-1.003,0-1.385l0,0
		c0.383-0.383,1.003-0.383,1.385,0l10.313,10.313C45.316,41.597,45.316,42.217,44.933,42.599L44.933,42.599z"/>
	<path fill="#ACB3BD" d="M33.234,42.599c-0.383-0.383-0.383-1.003,0-1.385l10.313-10.313c0.383-0.383,1.003-0.383,1.385,0l0,0
		c0.383,0.383,0.383,1.003,0,1.385L34.62,42.599C34.237,42.982,33.617,42.982,33.234,42.599L33.234,42.599z"/>
</g>
</svg>
