<?xml version="1.0" encoding="utf-8"?>
<!-- Generator: Adobe Illustrator 17.0.0, SVG Export Plug-In . SVG Version: 6.00 Build 0)  -->
<!DOCTYPE svg PUBLIC "-//W3C//DTD SVG 1.1//EN" "http://www.w3.org/Graphics/SVG/1.1/DTD/svg11.dtd">
<svg width="100%" height="100%" viewBox="0 0 308 78" preserveAspectRatio="none"
version="1.1" id="图层_1" xmlns="http://www.w3.org/2000/svg" xmlns:xlink="http://www.w3.org/1999/xlink"  enable-background="new 0 0 308 78" xml:space="preserve">
<g>
	<path fill="#757575" d="M308,70c0,4.418-3.582,8-8,8H8c-4.418,0-8-3.582-8-8V10c0-4.418,3.582-8,8-8h292c4.418,0,8,3.582,8,8V70z"
		/>
	<path fill="#FFFFFF" d="M308,68c0,4.418-3.582,8-8,8H8c-4.418,0-8-3.582-8-8V8c0-4.418,3.582-8,8-8h292c4.418,0,8,3.582,8,8V68z"/>
</g>
<path fill="#ACB3BD" d="M187.722,26h-49l-21.445,13l21.445,13h49c1.657,0,3-1.343,3-3V29C190.722,27.343,189.379,26,187.722,26z"/>
<g>
	<path fill="#FFFFFF" d="M174.349,44.849c-0.383,0.383-1.003,0.383-1.385,0l-25.313-10.313c-0.383-0.383-0.383-1.003,0-1.385l0,0
		c0.383-0.383,1.003-0.383,1.385,0l25.313,10.313C174.732,43.847,174.732,44.467,174.349,44.849L174.349,44.849z"/>
	<path fill="#FFFFFF" d="M147.651,44.849c-0.383-0.383-0.383-1.003,0-1.385l25.313-10.313c0.383-0.383,1.003-0.383,1.385,0l0,0
		c0.383,0.383,0.383,1.003,0,1.385l-25.313,10.313C148.653,45.232,148.033,45.232,147.651,44.849L147.651,44.849z"/>
</g>
</svg>
