<?xml version="1.0" encoding="utf-8"?>
<!-- Generator: Adobe Illustrator 17.0.0, SVG Export Plug-In . SVG Version: 6.00 Build 0)  -->
<!DOCTYPE svg PUBLIC "-//W3C//DTD SVG 1.1//EN" "http://www.w3.org/Graphics/SVG/1.1/DTD/svg11.dtd">
<svg width="100%" height="100%" viewBox="0 0 86 148" preserveAspectRatio="none"
version="1.1" id="图层_1" xmlns="http://www.w3.org/2000/svg" xmlns:xlink="http://www.w3.org/1999/xlink"  enable-background="new 0 0 86 148" xml:space="preserve">
<g>
	<path fill="#FFFFFF" d="M42.537,145.516v-0.031H25.162c-4.687,0-8.5-3.813-8.5-8.5V80.817c0-5.837-3.119-10.594-7.584-11.602
		c-3.783-0.961-6.416-4.345-6.416-8.231v-50c0-4.687,3.813-8.5,8.5-8.5h32.5v0.031h31.375c4.687,0,8.5,3.813,8.5,8.5v50
		c0,3.886-2.633,7.271-6.402,8.229c-4.479,1.011-7.598,5.768-7.598,11.571v56.2c0,4.687-3.813,8.5-8.5,8.5H42.537z"/>
	<path fill="#757575" d="M43.162,2.984v0.031h31.875c4.418,0,8,3.582,8,8v50c0,3.736-2.564,6.864-6.026,7.744
		c-4.462,1.007-7.974,5.758-7.974,12.055c0,0.011,0.001,0.021,0.001,0.032l-0.001,0.002v56.167c0,4.418-3.582,8-8,8h-18v-0.031
		H25.162c-4.418,0-8-3.582-8-8V80.818l-0.001-0.002c0-0.011,0.001-0.021,0.001-0.032c0-6.297-3.512-11.048-7.974-12.055
		c-3.462-0.881-6.026-4.009-6.026-7.744v-50c0-4.418,3.582-8,8-8H43.162 M43.162,1.984h-32c-4.963,0-9,4.037-9,9v50
		c0,4.115,2.788,7.698,6.779,8.714c4.262,0.962,7.221,5.518,7.221,11.086v0.3v55.901c0,4.963,4.037,9,9,9h16.875l1,0.031h18
		c4.963,0,9-4.037,9-9v-55.87l0.001-0.299V80.82l-0.002-0.043c0.001-5.529,2.959-10.086,7.195-11.041
		c4.018-1.022,6.806-4.605,6.806-8.72v-50c0-4.963-4.037-9-9-9H44.162L43.162,1.984L43.162,1.984z"/>
</g>
</svg>
