<?xml version="1.0" encoding="utf-8"?>
<!-- Generator: Adobe Illustrator 17.0.0, SVG Export Plug-In . SVG Version: 6.00 Build 0)  -->
<!DOCTYPE svg PUBLIC "-//W3C//DTD SVG 1.1//EN" "http://www.w3.org/Graphics/SVG/1.1/DTD/svg11.dtd">
<svg width="100%" height="100%" viewBox="0 0 86 148" preserveAspectRatio="none"
version="1.1" id="图层_1" xmlns="http://www.w3.org/2000/svg" xmlns:xlink="http://www.w3.org/1999/xlink"  enable-background="new 0 0 86 148" xml:space="preserve">
<g>
	<path fill="#FFFFFF" d="M56.437,145.516v-0.031H39.062c-4.687,0-8.5-3.813-8.5-8.5V80.817c0-5.527-15.581-10.247-21.584-11.601
		c-3.783-0.962-6.416-4.346-6.416-8.232v-50c0-4.687,3.813-8.5,8.5-8.5h46.5v0.031h17.375c4.687,0,8.5,3.813,8.5,8.5v126
		c0,4.687-3.813,8.5-8.5,8.5H56.437z"/>
	<path fill="#757575" d="M57.062,2.984v0.031h17.875c4.418,0,8,3.582,8,8v38v12c0,0.011,0.001,29.656,0.001,29.667l-0.001,6v40.333
		c0,4.418-3.582,8-8,8h-18v-0.031H39.062c-4.418,0-8-3.582-8-8V80.818l-0.001-0.002c0-0.011,0.001-0.021,0.001-0.032
		c0-6.297-17.512-11.048-21.974-12.055c-3.462-0.881-6.026-4.009-6.026-7.744v-50c0-4.418,3.582-8,8-8H57.062 M57.062,1.984h-46
		c-4.963,0-9,4.037-9,9v50c0,4.115,2.788,7.698,6.779,8.714c8.221,1.855,21.221,6.498,21.221,11.086v0.3v55.901c0,4.963,4.037,9,9,9
		h16.875l1,0.031h18c4.963,0,9-4.037,9-9V96.682l0.001-6L83.938,75.88l-0.001-14.864v-12v-38c0-4.963-4.037-9-9-9H58.062
		L57.062,1.984L57.062,1.984z"/>
</g>
</svg>
