<?xml version="1.0" encoding="utf-8"?>
<!-- Generator: Adobe Illustrator 17.0.0, SVG Export Plug-In . SVG Version: 6.00 Build 0)  -->
<!DOCTYPE svg PUBLIC "-//W3C//DTD SVG 1.1//EN" "http://www.w3.org/Graphics/SVG/1.1/DTD/svg11.dtd">
<svg width="100%" height="100%" viewBox="0 0 86 148" preserveAspectRatio="none"
version="1.1" id="图层_1" xmlns="http://www.w3.org/2000/svg" xmlns:xlink="http://www.w3.org/1999/xlink"  enable-background="new 0 0 86 148" xml:space="preserve">
<g>
	<path fill="#FFFFFF" d="M11.063,145.516c-4.687,0-8.5-3.813-8.5-8.5v-126c0-4.687,3.813-8.5,8.5-8.5h17.375l0.5-0.031h46
		c4.687,0,8.5,3.813,8.5,8.5v50c0,3.887-2.633,7.271-6.402,8.229c-6.017,1.358-21.598,6.077-21.598,11.571v56.2
		c0,4.687-3.813,8.5-8.5,8.5H29.563l-0.5,0.031H11.063z"/>
	<path fill="#757575" d="M74.938,2.984c4.418,0,8,3.582,8,8v50c0,3.736-2.564,6.864-6.026,7.744
		c-4.462,1.007-21.974,5.758-21.974,12.055c0,0.011,0.001,0.021,0.001,0.032l-0.001,0.002v56.167c0,4.418-3.582,8-8,8H29.063v0.031
		h-18c-4.418,0-8-3.582-8-8V96.682l-0.001-6c0-0.011,0.001-29.656,0.001-29.667v-12v-38c0-4.418,3.582-8,8-8h17.875V2.984H74.938
		 M74.938,1.984h-46h-1v0.031H11.063c-4.963,0-9,4.037-9,9v38v12L2.062,75.88L2.062,90.682l0.001,6v40.333c0,4.963,4.037,9,9,9h18h1
		v-0.031h16.875c4.963,0,9-4.037,9-9V81.118l0.001-0.302v-0.027l-0.002-0.043c0.001-4.55,13.001-9.192,21.195-11.041
		c4.018-1.022,6.806-4.605,6.806-8.72v-50C83.938,6.022,79.901,1.984,74.938,1.984L74.938,1.984z"/>
</g>
</svg>
