<?xml version="1.0" encoding="utf-8"?>
<!-- Generator: Adobe Illustrator 17.0.0, SVG Export Plug-In . SVG Version: 6.00 Build 0)  -->
<!DOCTYPE svg PUBLIC "-//W3C//DTD SVG 1.1//EN" "http://www.w3.org/Graphics/SVG/1.1/DTD/svg11.dtd">
<svg width="100%" height="100%" viewBox="0 0 72 78" preserveAspectRatio="none"
version="1.1" id="图层_1" xmlns="http://www.w3.org/2000/svg" xmlns:xlink="http://www.w3.org/1999/xlink"  enable-background="new 0 0 72 78" xml:space="preserve">
<g>
	<path fill="#757575" d="M68,66c0,4.418-3.582,8-8,8H12c-4.418,0-8-3.582-8-8V14c0-4.418,3.582-8,8-8h48c4.418,0,8,3.582,8,8V66z"/>
	<path fill="#FFFFFF" d="M68,64c0,4.418-3.582,8-8,8H12c-4.418,0-8-3.582-8-8V12c0-4.418,3.582-8,8-8h48c4.418,0,8,3.582,8,8V64z"/>
</g>
<g>
	<polyline points="43.667,50.056 43.667,41.389 53,41.389 36,24.944 19,41.389 28.333,41.389 28.333,50.056 	"/>
</g>
<rect x="28" y="54.25" width="16" height="4"/>
</svg>
