<?xml version="1.0" encoding="utf-8"?>
<!-- Generator: Adobe Illustrator 17.0.0, SVG Export Plug-In . SVG Version: 6.00 Build 0)  -->
<!DOCTYPE svg PUBLIC "-//W3C//DTD SVG 1.1//EN" "http://www.w3.org/Graphics/SVG/1.1/DTD/svg11.dtd">
<svg width="100%" height="100%" viewBox="0 0 72 78" preserveAspectRatio="none"
version="1.1" id="图层_1" xmlns="http://www.w3.org/2000/svg" xmlns:xlink="http://www.w3.org/1999/xlink"  enable-background="new 0 0 72 78" xml:space="preserve">
<g>
	<path fill="#757575" d="M68,66c0,4.418-3.582,8-8,8H12c-4.418,0-8-3.582-8-8V14c0-4.418,3.582-8,8-8h48c4.418,0,8,3.582,8,8V66z"/>
	<path fill="#ACB3BD" d="M68,64c0,4.418-3.582,8-8,8H12c-4.418,0-8-3.582-8-8V12c0-4.418,3.582-8,8-8h48c4.418,0,8,3.582,8,8V64z"/>
</g>
<g>
	<path fill="#FFFFFF" d="M36,27.727l12.056,11.662h-4.389h-2v2v8.667c0,0.551-0.449,1-1,1h-9.333c-0.551,0-1-0.449-1-1v-8.667v-2h-2
		h-4.389L36,27.727 M36,24.944L19,41.389h9.333v8.667c0,1.657,1.343,3,3,3h9.333c1.657,0,3-1.343,3-3v-8.667H53L36,24.944L36,24.944
		z"/>
</g>
</svg>
