<?xml version="1.0" encoding="utf-8"?>
<!-- Generator: Adobe Illustrator 17.0.0, SVG Export Plug-In . SVG Version: 6.00 Build 0)  -->
<!DOCTYPE svg PUBLIC "-//W3C//DTD SVG 1.1//EN" "http://www.w3.org/Graphics/SVG/1.1/DTD/svg11.dtd">
<svg width="100%" height="100%" viewBox="0 0 148 78" preserveAspectRatio="none"
version="1.1" id="图层_1" xmlns="http://www.w3.org/2000/svg" xmlns:xlink="http://www.w3.org/1999/xlink"  enable-background="new 0 0 148 78" xml:space="preserve">
<g>
	<path fill="#757575" d="M144,66c0,4.418-3.582,8-8,8H12.039c-4.418,0-8-3.582-8-8V14c0-4.418,3.582-8,8-8H136c4.418,0,8,3.582,8,8
		V66z"/>
	<path fill="#FFFFFF" d="M144,64c0,4.418-3.582,8-8,8H12.039c-4.418,0-8-3.582-8-8V12c0-4.418,3.582-8,8-8H136c4.418,0,8,3.582,8,8
		V64z"/>
</g>
<g>
	<path fill="#231815" d="M101.454,20c0.551,0,1,0.449,1,1v26c0,0.551-0.449,1-1,1h-54c-0.551,0-1-0.449-1-1V21c0-0.551,0.449-1,1-1
		H101.454 M101.454,18h-54c-1.657,0-3,1.343-3,3v26c0,1.657,1.343,3,3,3h54c1.657,0,3-1.343,3-3V21
		C104.454,19.343,103.111,18,101.454,18L101.454,18z"/>
</g>
<rect x="49.247" y="22.25" fill="#231815" width="4.375" height="3.875"/>
<rect x="64.553" y="22.25" fill="#231815" width="4.375" height="3.875"/>
<rect x="56.9" y="22.25" fill="#231815" width="4.375" height="3.875"/>
<rect x="72.205" y="22.25" fill="#231815" width="4.375" height="3.875"/>
<rect x="79.858" y="22.25" fill="#231815" width="4.375" height="3.875"/>
<rect x="68.379" y="29.125" fill="#231815" width="4.375" height="3.875"/>
<rect x="60.726" y="29.125" fill="#231815" width="4.375" height="3.875"/>
<rect x="76.032" y="29.125" fill="#231815" width="4.375" height="3.875"/>
<rect x="76.389" y="35.75" fill="#231815" width="4.375" height="3.875"/>
<rect x="68.022" y="35.75" fill="#231815" width="4.375" height="3.875"/>
<rect x="59.655" y="35.75" fill="#231815" width="4.375" height="3.875"/>
<rect x="84.755" y="35.75" fill="#231815" width="4.375" height="3.875"/>
<rect x="83.685" y="29.125" fill="#231815" width="4.375" height="3.875"/>
<rect x="87.511" y="22.25" fill="#231815" width="4.375" height="3.875"/>
<rect x="49.247" y="29.125" fill="#231815" width="6.375" height="3.875"/>
<rect x="49.247" y="35.75" fill="#231815" width="8.458" height="3.875"/>
<rect x="49.247" y="41.75" fill="#231815" width="4.875" height="3.875"/>
<rect x="56.65" y="41.75" fill="#231815" width="4.875" height="3.875"/>
<rect x="87.261" y="41.75" fill="#231815" width="4.875" height="3.875"/>
<rect x="64.173" y="41.75" fill="#231815" width="20.562" height="3.875"/>
<rect x="95.164" y="22.25" fill="#231815" width="4.375" height="3.875"/>
<rect x="93.164" y="29.125" fill="#231815" width="6.375" height="3.875"/>
<rect x="91.08" y="35.75" fill="#231815" width="8.458" height="3.875"/>
<rect x="94.664" y="41.75" fill="#231815" width="4.875" height="3.875"/>
<polygon points="74.454,58.807 67.281,53.383 63.83,53.383 74.454,61.416 85.077,53.383 81.627,53.383 "/>
</svg>
