<?xml version="1.0" encoding="utf-8"?>
<!-- Generator: Adobe Illustrator 17.0.0, SVG Export Plug-In . SVG Version: 6.00 Build 0)  -->
<!DOCTYPE svg PUBLIC "-//W3C//DTD SVG 1.1//EN" "http://www.w3.org/Graphics/SVG/1.1/DTD/svg11.dtd">
<svg width="100%" height="100%" viewBox="0 0 196 94" preserveAspectRatio="none"
version="1.1" id="图层_1" xmlns="http://www.w3.org/2000/svg" xmlns:xlink="http://www.w3.org/1999/xlink"  enable-background="new 0 0 196 94" xml:space="preserve">
<g>
	<path fill="#757575" d="M190,80c0,4.418-3.582,8-8,8H14c-4.418,0-8-3.582-8-8V16c0-4.418,3.582-8,8-8h168c4.418,0,8,3.582,8,8V80z"
		/>
	<path fill="#ACB3BD" d="M190,78c0,4.418-3.582,8-8,8H14c-4.418,0-8-3.582-8-8V14c0-4.418,3.582-8,8-8h168c4.418,0,8,3.582,8,8V78z"
		/>
</g>
<g>
	<g>
		<path fill="#231815" d="M125,29.144c0.551,0,1,0.449,1,1v26c0,0.551-0.449,1-1,1H71c-0.551,0-1-0.449-1-1v-26c0-0.551,0.449-1,1-1
			H125 M125,27.144H71c-1.657,0-3,1.343-3,3v26c0,1.657,1.343,3,3,3h54c1.657,0,3-1.343,3-3v-26
			C128,28.487,126.657,27.144,125,27.144L125,27.144z"/>
	</g>
	<rect x="72.793" y="31.394" fill="#231815" width="4.375" height="3.875"/>
	<rect x="88.099" y="31.394" fill="#231815" width="4.375" height="3.875"/>
	<rect x="80.446" y="31.394" fill="#231815" width="4.375" height="3.875"/>
	<rect x="95.752" y="31.394" fill="#231815" width="4.375" height="3.875"/>
	<rect x="103.404" y="31.394" fill="#231815" width="4.375" height="3.875"/>
	<rect x="91.925" y="38.269" fill="#231815" width="4.375" height="3.875"/>
	<rect x="84.272" y="38.269" fill="#231815" width="4.375" height="3.875"/>
	<rect x="99.578" y="38.269" fill="#231815" width="4.375" height="3.875"/>
	<rect x="99.935" y="44.894" fill="#231815" width="4.375" height="3.875"/>
	<rect x="91.568" y="44.894" fill="#231815" width="4.375" height="3.875"/>
	<rect x="83.202" y="44.894" fill="#231815" width="4.375" height="3.875"/>
	<rect x="108.302" y="44.894" fill="#231815" width="4.375" height="3.875"/>
	<rect x="107.231" y="38.269" fill="#231815" width="4.375" height="3.875"/>
	<rect x="111.057" y="31.394" fill="#231815" width="4.375" height="3.875"/>
	<rect x="72.793" y="38.269" fill="#231815" width="6.375" height="3.875"/>
	<rect x="72.793" y="44.894" fill="#231815" width="8.458" height="3.875"/>
	<rect x="72.793" y="50.894" fill="#231815" width="4.875" height="3.875"/>
	<rect x="80.196" y="50.894" fill="#231815" width="4.875" height="3.875"/>
	<rect x="110.807" y="50.894" fill="#231815" width="4.875" height="3.875"/>
	<rect x="87.719" y="50.894" fill="#231815" width="20.562" height="3.875"/>
	<rect x="118.71" y="31.394" fill="#231815" width="4.375" height="3.875"/>
	<rect x="116.71" y="38.269" fill="#231815" width="6.375" height="3.875"/>
	<rect x="114.627" y="44.894" fill="#231815" width="8.458" height="3.875"/>
	<rect x="118.21" y="50.894" fill="#231815" width="4.875" height="3.875"/>
	<polygon points="98,67.951 90.827,62.527 87.377,62.527 98,70.56 108.623,62.527 105.173,62.527 	"/>
</g>
</svg>
