<?xml version="1.0" encoding="utf-8"?>
<!-- Generator: Adobe Illustrator 17.0.0, SVG Export Plug-In . SVG Version: 6.00 Build 0)  -->
<!DOCTYPE svg PUBLIC "-//W3C//DTD SVG 1.1//EN" "http://www.w3.org/Graphics/SVG/1.1/DTD/svg11.dtd">
<svg width="100%" height="100%" viewBox="0 0 196 94" preserveAspectRatio="none"
version="1.1" id="图层_1" xmlns="http://www.w3.org/2000/svg" xmlns:xlink="http://www.w3.org/1999/xlink"  enable-background="new 0 0 196 94" xml:space="preserve">
<g>
	<path fill="#757575" d="M190,80c0,4.418-3.582,8-8,8H14c-4.418,0-8-3.582-8-8V16c0-4.418,3.582-8,8-8h168c4.418,0,8,3.582,8,8V80z"
		/>
	<path fill="#FFFFFF" d="M190,78c0,4.418-3.582,8-8,8H14c-4.418,0-8-3.582-8-8V14c0-4.418,3.582-8,8-8h168c4.418,0,8,3.582,8,8V78z"
		/>
</g>
<path fill="#ADB4BE" d="M124.553,28.312H85.108L67.32,46.894l17.788,18.581h39.445c2.368,0,4.288-1.92,4.288-4.288V32.6
	C128.841,30.232,126.921,28.312,124.553,28.312z"/>
<g>
	<path fill="#FFFFFF" d="M113.156,55.254c-0.547,0.547-1.433,0.547-1.98,0L96.435,40.513c-0.547-0.547-0.547-1.433,0-1.98l0,0
		c0.547-0.547,1.433-0.547,1.98,0l14.741,14.741C113.703,53.821,113.703,54.708,113.156,55.254L113.156,55.254z"/>
	<path fill="#FFFFFF" d="M96.435,55.254c-0.547-0.547-0.547-1.433,0-1.98l14.741-14.741c0.547-0.547,1.433-0.547,1.98,0l0,0
		c0.547,0.547,0.547,1.433,0,1.98L98.415,55.254C97.868,55.801,96.981,55.801,96.435,55.254L96.435,55.254z"/>
</g>
</svg>
